<svg width="512" height="309" viewBox="0 0 512 309" fill="none" xmlns="http://www.w3.org/2000/svg">
<path fill-rule="evenodd" clip-rule="evenodd" d="M93.5311 105.831C82.6683 105.831 72.3468 107.559 63.0344 110.666C47.5484 101.567 26.7664 96 3.92035 96C-40.5351 96 -77.1752 117.081 -82.1871 144.24C-86.2526 143.645 -90.4485 143.333 -94.7389 143.333C-131.655 143.333 -161.582 166.4 -161.582 194.854C-161.582 219.374 -139.358 239.893 -109.589 245.098C-98.2283 261.049 -76.2299 271.862 -50.9551 271.862C-46.0498 271.862 -41.2678 271.454 -36.663 270.681C-27.7462 291.054 -2.75171 305.723 26.688 305.723C47.5885 305.723 66.2485 298.329 78.5057 286.751C90.5679 300.193 110.71 309 133.52 309C155.669 309 175.302 300.697 187.465 287.909C196.225 291.159 206.045 292.979 216.417 292.979C253.334 292.979 283.26 269.913 283.26 241.459C283.26 237.722 282.744 234.079 281.764 230.568C291.795 221.557 297.855 209.843 297.855 197.038C297.855 168.584 267.929 145.518 231.012 145.518C226.895 145.518 222.865 145.805 218.953 146.354C206.898 132.873 186.727 124.036 163.877 124.036C159.152 124.036 154.541 124.414 150.092 125.133C136.39 113.311 116.132 105.831 93.5311 105.831Z" fill="#D3B1D1" fill-opacity="0.5"/>
<path fill-rule="evenodd" clip-rule="evenodd" d="M457.788 10.3846C446.418 10.3846 435.616 12.21 425.869 15.4926C409.662 5.88113 387.911 0 364 0C317.472 0 279.125 22.2684 273.879 50.9581C269.624 50.3292 265.232 50.0001 260.742 50.0001C222.105 50.0001 190.783 74.3661 190.783 104.423C190.783 130.325 214.043 152 245.2 157.498C257.09 174.348 280.114 185.769 306.567 185.769C311.701 185.769 316.705 185.339 321.525 184.522C330.857 206.043 357.016 221.539 387.828 221.539C409.703 221.539 429.233 213.728 442.061 201.497C454.686 215.697 475.766 225 499.64 225C522.821 225 543.369 216.229 556.099 202.721C565.267 206.153 575.545 208.077 586.401 208.077C625.038 208.077 656.36 183.711 656.36 153.654C656.36 149.707 655.82 145.858 654.794 142.149C665.292 132.63 671.635 120.257 671.635 106.731C671.635 76.6738 640.313 52.3077 601.676 52.3077C597.367 52.3077 593.149 52.6108 589.055 53.191C576.438 38.95 555.327 29.6154 531.412 29.6154C526.467 29.6154 521.641 30.0146 516.985 30.7739C502.644 18.2866 481.442 10.3846 457.788 10.3846Z" fill="#9C4A97" fill-opacity="0.3"/>
</svg>
